{"title":"Commando 2013 DVDRip ESubs Xvid-Team IcTv","uid":8527851,"size":738281378,"categoryP":"video","categoryS":"movies","magnet":"?xt=urn:btih:62d48396c99dfe17b544f9cadabaafc9f4bf756f&amp;dn=Commando+2013+DVDRip+ESubs+Xvid-Team+IcTv&amp;tr=udp%3A%2F%2Ftracker.openbittorrent.com%3A80&amp;tr=udp%3A%2F%2Fopen.demonii.com%3A1337&amp;tr=udp%3A%2F%2Ftracker.coppersurfer.tk%3A6969&amp;tr=udp%3A%2F%2Fexodus.desync.com%3A6969","seeders":3,"leechers":1,"uploader":"HeroMaster","files":-1,"time":1370070842,"description":"Commando 2013 DVDRip ESubs Xvid-Team IcTv\n\n\nIMDB: http://www.imdb.com/title/tt2658126/\n\n\nFormat : AVI\nFormat/Info : Audio Video Interleave\nFile size : 704 MiB\nDuration : 2h 4mn\nOverall bit rate : 790 Kbps\n\nVideo\nID : 0\nFormat : MPEG-4 Visual\nCodec ID : XVID\nDuration : 2h 4mn\nBit rate : 700 Kbps\nWidth : 640 pixels\nHeight : 272 pixels\nDisplay aspect ratio : 2.35:1\nFrame rate : 23.976 fps\nColor space : YUV\nChroma subsampling : 4:2:0\nBit depth : 8 bits\nScan type : Progressive\nCompression mode : Lossy\nBits/(Pixel*Frame) : 0.168\nStream size : 624 MiB (89%)\n\n\nAudio\nID : 1\nFormat : MPEG Audio\nFormat version : Version 1\nFormat profile : Layer 3\nMode : Joint stereo\nMode extension : MS Stereo\nCodec ID : 55\nCodec ID/Hint : MP3\nDuration : 2h 4mn\nBit rate mode : Constant\nBit rate : 80.0 Kbps\nChannel(s) : 2 channels\nSampling rate : 32.0 KHz\nCompression mode : Lossy\nStream size : 71.3 MiB (10%)\n\n\nRipper: Master Mind\n\nRESPECTS TO\n\n*SaM* n IcTv\n\nAll Credit Goes To Intellect Clever &amp; Team IcTv\n\n\nPoster:\n\n &lt;a href=&quot;\nhttp://i.imgur.com/g3Utfky.jpg&quot; rel=&quot;nofollow&quot; target=&quot;_NEW&quot;&gt;\nhttp://i.imgur.com/g3Utfky.jpg&lt;/a&gt;\n\n\nScreenshots:\n\n &lt;a href=&quot;\nhttp://i.imgur.com/zHTHtav.png&quot; rel=&quot;nofollow&quot; target=&quot;_NEW&quot;&gt;\nhttp://i.imgur.com/zHTHtav.png&lt;/a&gt;\n\n &lt;a href=&quot;\nhttp://i.imgur.com/NXiBeA7.png&quot; rel=&quot;nofollow&quot; target=&quot;_NEW&quot;&gt;\nhttp://i.imgur.com/NXiBeA7.png&lt;/a&gt;\n\n &lt;a href=&quot;\nhttp://i.imgur.com/ao42baw.jpg&quot; rel=&quot;nofollow&quot; target=&quot;_NEW&quot;&gt;\nhttp://i.imgur.com/ao42baw.jpg&lt;/a&gt;\n\n\nSEED AND ENJOY!","torrent":{"xt":"urn:btih:62d48396c99dfe17b544f9cadabaafc9f4bf756f","amp;dn":"Commando+2013+DVDRip+ESubs+Xvid-Team+IcTv","amp;tr":["udp%3A%2F%2Ftracker.openbittorrent.com%3A80","udp%3A%2F%2Fopen.demonii.com%3A1337","udp%3A%2F%2Ftracker.coppersurfer.tk%3A6969","udp%3A%2F%2Fexodus.desync.com%3A6969"],"infoHash":"62d48396c99dfe17b544f9cadabaafc9f4bf756f","infoHashBuffer":{"type":"Buffer","data":[98,212,131,150,201,157,254,23,181,68,249,202,218,186,175,201,244,191,117,111]},"announce":[],"urlList":[]}}